<svg id="Layer_1" data-name="Layer 1" xmlns="http://www.w3.org/2000/svg" viewBox="0 0 32 32"><defs><style>.cls-1{fill:#234291;}.cls-2{fill:#eb4036;}.cls-3{fill:#fff;}</style></defs><path class="cls-1" d="M0,4.57H0V27.44A4.57,4.57,0,0,0,4.57,32H27.43a4.55,4.55,0,0,0,3.23-1.34L1.34,1.34A4.55,4.55,0,0,0,0,4.57Z"/><path class="cls-2" d="M32,27.43V4.58h0A4.57,4.57,0,0,0,27.43,0H4.57A4.55,4.55,0,0,0,1.34,1.34L30.66,30.66A4.55,4.55,0,0,0,32,27.43Z"/><path class="cls-3" d="M17.25,2.66h-2.5a1.11,1.11,0,0,0-1.11,1.11V18.39H15V16h0l2.11,2.38h1.24V3.77A1.11,1.11,0,0,0,17.25,2.66Zm-.2,13.49h0l-2.17-2.49h2.18Z"/><path class="cls-3" d="M19.93,7.38a5.63,5.63,0,0,0,.78,3.14,7.86,7.86,0,1,1-9.43,0,5.68,5.68,0,0,0,.79-3.15,2.93,2.93,0,0,0-.79-2.23,12.58,12.58,0,1,0,9.44,0A2.93,2.93,0,0,0,19.93,7.38Z"/></svg>